<svg width="620" height="326" viewBox="0 0 620 326" fill="none" xmlns="http://www.w3.org/2000/svg">
<rect width="620" height="326" rx="20" fill="url(#paint0_linear_340_322)"/>
<rect x="118" y="242" width="50.0294" height="54" rx="5.48824" transform="rotate(90 118 242)" fill="#FFD686"/>
<path d="M118 271.16L94.78 271.16L94.78 258.581L64 258.581" stroke="#45197D" stroke-width="1.82941" stroke-linejoin="round"/>
<path d="M76.416 56.6C78.464 56.6 79.9893 57.08 80.992 58.04C81.9947 59 82.496 60.4187 82.496 62.296C82.496 63.2987 82.2507 64.184 81.76 64.952C81.2693 65.6987 80.544 66.2853 79.584 66.712C78.624 67.1173 77.44 67.32 76.032 67.32L76.16 65.88C76.8213 65.88 77.5787 65.976 78.432 66.168C79.2853 66.3387 80.1067 66.6587 80.896 67.128C81.7067 67.576 82.368 68.216 82.88 69.048C83.4133 69.8587 83.68 70.904 83.68 72.184C83.68 73.592 83.4453 74.744 82.976 75.64C82.528 76.536 81.9307 77.2293 81.184 77.72C80.4373 78.2107 79.6373 78.552 78.784 78.744C77.9307 78.9147 77.1093 79 76.32 79H68.352C67.7973 79 67.328 78.8187 66.944 78.456C66.5813 78.072 66.4 77.6027 66.4 77.048V58.552C66.4 57.9973 66.5813 57.5387 66.944 57.176C67.328 56.792 67.7973 56.6 68.352 56.6H76.416ZM75.84 60.376H70.144L70.56 59.864V65.656L70.176 65.368H75.936C76.5547 65.368 77.1093 65.1653 77.6 64.76C78.0907 64.3547 78.336 63.768 78.336 63C78.336 62.0827 78.1013 61.4213 77.632 61.016C77.184 60.5893 76.5867 60.376 75.84 60.376ZM76.096 69.144H70.272L70.56 68.888V75.64L70.24 75.32H76.32C77.3013 75.32 78.08 75.064 78.656 74.552C79.232 74.0187 79.52 73.2293 79.52 72.184C79.52 71.224 79.328 70.5307 78.944 70.104C78.56 69.6773 78.1013 69.4107 77.568 69.304C77.0347 69.1973 76.544 69.144 76.096 69.144ZM101.065 61.56C101.619 61.56 102.078 61.7413 102.441 62.104C102.803 62.4667 102.985 62.936 102.985 63.512V77.048C102.985 77.6027 102.803 78.072 102.441 78.456C102.078 78.8187 101.619 79 101.065 79C100.51 79 100.051 78.8187 99.6888 78.456C99.3261 78.072 99.1448 77.6027 99.1448 77.048V75.48L99.8488 75.768C99.8488 76.0453 99.6994 76.3867 99.4008 76.792C99.1021 77.176 98.6968 77.56 98.1848 77.944C97.6728 78.328 97.0648 78.6587 96.3608 78.936C95.6781 79.192 94.9314 79.32 94.1208 79.32C92.6488 79.32 91.3154 78.9467 90.1208 78.2C88.9261 77.432 87.9768 76.3867 87.2728 75.064C86.5901 73.72 86.2488 72.184 86.2488 70.456C86.2488 68.7067 86.5901 67.1707 87.2728 65.848C87.9768 64.504 88.9154 63.4587 90.0888 62.712C91.2621 61.944 92.5634 61.56 93.9928 61.56C94.9101 61.56 95.7528 61.6987 96.5208 61.976C97.2888 62.2533 97.9501 62.6053 98.5048 63.032C99.0808 63.4587 99.5181 63.896 99.8168 64.344C100.137 64.7707 100.297 65.1333 100.297 65.432L99.1448 65.848V63.512C99.1448 62.9573 99.3261 62.4987 99.6888 62.136C100.051 61.752 100.51 61.56 101.065 61.56ZM94.6008 75.8C95.5394 75.8 96.3608 75.5653 97.0648 75.096C97.7688 74.6267 98.3128 73.9867 98.6968 73.176C99.1021 72.3653 99.3048 71.4587 99.3048 70.456C99.3048 69.432 99.1021 68.5147 98.6968 67.704C98.3128 66.8933 97.7688 66.2533 97.0648 65.784C96.3608 65.3147 95.5394 65.08 94.6008 65.08C93.6834 65.08 92.8728 65.3147 92.1688 65.784C91.4648 66.2533 90.9101 66.8933 90.5048 67.704C90.1208 68.5147 89.9288 69.432 89.9288 70.456C89.9288 71.4587 90.1208 72.3653 90.5048 73.176C90.9101 73.9867 91.4648 74.6267 92.1688 75.096C92.8728 75.5653 93.6834 75.8 94.6008 75.8ZM111.303 77.048C111.303 77.6027 111.111 78.072 110.727 78.456C110.364 78.8187 109.905 79 109.351 79C108.817 79 108.369 78.8187 108.007 78.456C107.644 78.072 107.463 77.6027 107.463 77.048V57.272C107.463 56.7173 107.644 56.2587 108.007 55.896C108.391 55.512 108.86 55.32 109.415 55.32C109.969 55.32 110.417 55.512 110.759 55.896C111.121 56.2587 111.303 56.7173 111.303 57.272V77.048ZM129.784 61.56C130.338 61.56 130.797 61.7413 131.16 62.104C131.522 62.4667 131.704 62.936 131.704 63.512V77.048C131.704 77.6027 131.522 78.072 131.16 78.456C130.797 78.8187 130.338 79 129.784 79C129.229 79 128.77 78.8187 128.408 78.456C128.045 78.072 127.864 77.6027 127.864 77.048V75.48L128.568 75.768C128.568 76.0453 128.418 76.3867 128.12 76.792C127.821 77.176 127.416 77.56 126.904 77.944C126.392 78.328 125.784 78.6587 125.08 78.936C124.397 79.192 123.65 79.32 122.84 79.32C121.368 79.32 120.034 78.9467 118.84 78.2C117.645 77.432 116.696 76.3867 115.992 75.064C115.309 73.72 114.968 72.184 114.968 70.456C114.968 68.7067 115.309 67.1707 115.992 65.848C116.696 64.504 117.634 63.4587 118.808 62.712C119.981 61.944 121.282 61.56 122.712 61.56C123.629 61.56 124.472 61.6987 125.24 61.976C126.008 62.2533 126.669 62.6053 127.224 63.032C127.8 63.4587 128.237 63.896 128.536 64.344C128.856 64.7707 129.016 65.1333 129.016 65.432L127.864 65.848V63.512C127.864 62.9573 128.045 62.4987 128.408 62.136C128.77 61.752 129.229 61.56 129.784 61.56ZM123.32 75.8C124.258 75.8 125.08 75.5653 125.784 75.096C126.488 74.6267 127.032 73.9867 127.416 73.176C127.821 72.3653 128.024 71.4587 128.024 70.456C128.024 69.432 127.821 68.5147 127.416 67.704C127.032 66.8933 126.488 66.2533 125.784 65.784C125.08 65.3147 124.258 65.08 123.32 65.08C122.402 65.08 121.592 65.3147 120.888 65.784C120.184 66.2533 119.629 66.8933 119.224 67.704C118.84 68.5147 118.648 69.432 118.648 70.456C118.648 71.4587 118.84 72.3653 119.224 73.176C119.629 73.9867 120.184 74.6267 120.888 75.096C121.592 75.5653 122.402 75.8 123.32 75.8ZM145.013 61.56C146.592 61.56 147.787 61.8907 148.597 62.552C149.429 63.2133 149.995 64.0987 150.293 65.208C150.613 66.296 150.773 67.512 150.773 68.856V77.048C150.773 77.6027 150.592 78.072 150.229 78.456C149.867 78.8187 149.408 79 148.853 79C148.299 79 147.84 78.8187 147.477 78.456C147.115 78.072 146.933 77.6027 146.933 77.048V68.856C146.933 68.152 146.837 67.5227 146.645 66.968C146.475 66.392 146.155 65.9333 145.685 65.592C145.216 65.2507 144.544 65.08 143.669 65.08C142.816 65.08 142.091 65.2507 141.493 65.592C140.917 65.9333 140.469 66.392 140.149 66.968C139.851 67.5227 139.701 68.152 139.701 68.856V77.048C139.701 77.6027 139.52 78.072 139.157 78.456C138.795 78.8187 138.336 79 137.781 79C137.227 79 136.768 78.8187 136.405 78.456C136.043 78.072 135.861 77.6027 135.861 77.048V63.832C135.861 63.2773 136.043 62.8187 136.405 62.456C136.768 62.072 137.227 61.88 137.781 61.88C138.336 61.88 138.795 62.072 139.157 62.456C139.52 62.8187 139.701 63.2773 139.701 63.832V65.208L139.221 65.112C139.413 64.7493 139.691 64.3653 140.053 63.96C140.416 63.5333 140.843 63.1387 141.333 62.776C141.824 62.4133 142.379 62.1253 142.997 61.912C143.616 61.6773 144.288 61.56 145.013 61.56ZM162.54 61.56C163.756 61.56 164.812 61.688 165.708 61.944C166.625 62.2 167.329 62.5627 167.82 63.032C168.332 63.48 168.588 64.024 168.588 64.664C168.588 65.0907 168.46 65.496 168.204 65.88C167.948 66.2427 167.574 66.424 167.084 66.424C166.742 66.424 166.454 66.3813 166.22 66.296C166.006 66.1893 165.814 66.0613 165.644 65.912C165.473 65.7627 165.27 65.624 165.036 65.496C164.822 65.368 164.492 65.272 164.044 65.208C163.617 65.1227 163.297 65.08 163.084 65.08C161.996 65.08 161.068 65.3147 160.3 65.784C159.553 66.2533 158.977 66.8933 158.572 67.704C158.166 68.4933 157.964 69.4107 157.964 70.456C157.964 71.48 158.166 72.3973 158.572 73.208C158.998 73.9973 159.574 74.6267 160.3 75.096C161.046 75.5653 161.9 75.8 162.86 75.8C163.393 75.8 163.852 75.768 164.236 75.704C164.62 75.64 164.94 75.544 165.196 75.416C165.494 75.2453 165.761 75.064 165.996 74.872C166.23 74.68 166.582 74.584 167.052 74.584C167.606 74.584 168.033 74.7653 168.332 75.128C168.63 75.4693 168.78 75.896 168.78 76.408C168.78 76.9413 168.481 77.432 167.884 77.88C167.286 78.3067 166.497 78.6587 165.516 78.936C164.556 79.192 163.51 79.32 162.38 79.32C160.694 79.32 159.233 78.936 157.996 78.168C156.758 77.3787 155.798 76.312 155.116 74.968C154.454 73.624 154.124 72.12 154.124 70.456C154.124 68.7067 154.476 67.1707 155.18 65.848C155.905 64.504 156.897 63.4587 158.156 62.712C159.436 61.944 160.897 61.56 162.54 61.56ZM179.613 79.32C177.799 79.32 176.221 78.9467 174.877 78.2C173.554 77.432 172.53 76.3973 171.805 75.096C171.101 73.7947 170.749 72.3227 170.749 70.68C170.749 68.76 171.133 67.128 171.901 65.784C172.69 64.4187 173.714 63.3733 174.973 62.648C176.231 61.9227 177.565 61.56 178.973 61.56C180.061 61.56 181.085 61.784 182.045 62.232C183.026 62.68 183.89 63.2987 184.637 64.088C185.383 64.856 185.97 65.752 186.397 66.776C186.845 67.8 187.069 68.888 187.069 70.04C187.047 70.552 186.845 70.968 186.461 71.288C186.077 71.608 185.629 71.768 185.117 71.768H172.893L171.933 68.568H183.677L182.973 69.208V68.344C182.93 67.7253 182.706 67.1707 182.301 66.68C181.917 66.1893 181.426 65.8053 180.829 65.528C180.253 65.2293 179.634 65.08 178.973 65.08C178.333 65.08 177.735 65.1653 177.181 65.336C176.626 65.5067 176.146 65.7947 175.741 66.2C175.335 66.6053 175.015 67.1493 174.781 67.832C174.546 68.5147 174.429 69.3787 174.429 70.424C174.429 71.576 174.663 72.5573 175.133 73.368C175.623 74.1573 176.242 74.7653 176.989 75.192C177.757 75.5973 178.567 75.8 179.421 75.8C180.21 75.8 180.839 75.736 181.309 75.608C181.778 75.48 182.151 75.3307 182.429 75.16C182.727 74.968 182.994 74.808 183.229 74.68C183.613 74.488 183.975 74.392 184.317 74.392C184.786 74.392 185.17 74.552 185.469 74.872C185.789 75.192 185.949 75.5653 185.949 75.992C185.949 76.568 185.65 77.0907 185.053 77.56C184.498 78.0293 183.719 78.4453 182.717 78.808C181.714 79.1493 180.679 79.32 179.613 79.32Z" fill="white"/>
<defs>
<linearGradient id="paint0_linear_340_322" x1="310" y1="0" x2="310" y2="326" gradientUnits="userSpaceOnUse">
<stop stop-color="#64BCFB"/>
<stop offset="1" stop-color="#0500FF" stop-opacity="0.5"/>
</linearGradient>
</defs>
</svg>
